<svg xmlns="http://www.w3.org/2000/svg" viewBox="0 0 24 24" width="14" height="14" fill="#ffffff"><path d="M12 2.163c3.204 0 3.584.012 4.85.07 3.252.148 4.771 1.691 4.919 4.919.058 1.265.069 1.645.069 4.849 0 3.205-.012 3.584-.069 4.849-.149 3.225-1.664 4.771-4.919 4.919-1.266.058-1.644.07-4.85.07-3.204 0-3.584-.012-4.849-.07-3.26-.149-4.771-1.699-4.919-4.92-.058-1.265-.07-1.644-.07-4.849 0-3.204.013-3.583.07-4.849.149-3.227 1.664-4.771 4.919-4.919 1.266-.057 1.645-.069 4.849-.069zM12 0h-1.154c-2.964 0-3.375.013-4.559.072-3.8.174-6.195 2.572-6.368 6.369C.013 7.625 0 8.036 0 12v.001c0 3.964.013 4.375.072 5.558.174 3.797 2.568 6.195 6.368 6.368C7.625 23.987 8 24 12 24h.001c3.964 0 4.374-.013 5.558-.072 3.791-.174 6.198-2.569 6.368-6.368.059-1.184.073-1.595.073-5.559V12c0-3.964-.013-4.375-.072-5.559-.169-3.784-2.563-6.195-6.368-6.368C16.376.013 15.964 0 12 0zm0 5.838a6.162 6.162 0 1 0 0 12.324 6.162 6.162 0 0 0 0-12.324zM12 16a4 4 0 1 1 0-8 4 4 0 0 1 0 8zm6.406-11.845a1.44 1.44 0 1 0 0 2.881 1.44 1.44 0 0 0 0-2.881z"/></svg>