<svg width="88" height="51" viewBox="0 0 88 51" fill="none" xmlns="http://www.w3.org/2000/svg">
<mask id="mask0_23_2" style="mask-type:luminance" maskUnits="userSpaceOnUse" x="0" y="0" width="88" height="51">
<path d="M87.945 0H0V50.8488H87.945V0Z" fill="white"/>
</mask>
<g mask="url(#mask0_23_2)">
<path d="M8.66081 20.5554H24.2485C16.012 16.2615 11.2587 11.6098 9.91169 9.82064C8.72497 7.40376 8.41066 2.30634 16.6471 1.25169C24.8835 0.197044 29.1236 9.66371 30.2141 14.5289L37.142 11.5156C36.276 10.1031 35.1791 6.48724 28.0973 2.57C21.0155 -1.34725 12.7021 0.435595 9.43057 1.81667C7.47411 2.60138 3.5804 5.47026 3.65737 10.6681C3.73435 15.866 7.02507 19.4254 8.66081 20.5554Z" fill="#034D23"/>
<path d="M8.66081 20.5554H24.2485C16.012 16.2615 11.2587 11.6098 9.91169 9.82064C8.72497 7.40376 8.41066 2.30634 16.6471 1.25169C24.8835 0.197044 29.1236 9.66371 30.2141 14.5289L37.142 11.5156C36.276 10.1031 35.1791 6.48724 28.0973 2.57C21.0155 -1.34725 12.7021 0.435595 9.43057 1.81667C7.47411 2.60138 3.5804 5.47026 3.65737 10.6681C3.73435 15.866 7.02507 19.4254 8.66081 20.5554Z" fill="#034D23"/>
<path d="M8.66081 20.5554H24.2485C16.012 16.2615 11.2587 11.6098 9.91169 9.82064C8.72497 7.40376 8.41066 2.30634 16.6471 1.25169C24.8835 0.197044 29.1236 9.66371 30.2141 14.5289L37.142 11.5156C36.276 10.1031 35.1791 6.48724 28.0973 2.57C21.0155 -1.34725 12.7021 0.435595 9.43057 1.81667C7.47411 2.60138 3.5804 5.47026 3.65737 10.6681C3.73435 15.866 7.02507 19.4254 8.66081 20.5554Z" stroke="#034D23"/>
<path d="M34.3505 29.0027H20.0137C22.7849 29.6053 27.4548 34.0249 29.4433 36.1592C36.0632 46.3289 28.2246 49.1224 23.4777 49.248C12.855 48.9467 8.21077 37.3206 7.2165 31.5451L0 35.4059C2.69416 40.5284 6.35052 44.2573 8.08247 45.6698C10.3918 47.5531 26.7491 55.8396 34.3505 46.4231C40.4316 38.89 36.8844 31.6707 34.3505 29.0027Z" fill="#034D23"/>
<path d="M41.5674 1.31836C42.1062 1.84568 42.305 14.4072 42.3371 20.6221H52.6327C52.1708 13.5409 52.8251 4.80244 53.21 1.31836H41.5674Z" fill="#034D23"/>
<path d="M77.8423 1.31836C77.6884 2.67433 65.5903 14.7525 59.5605 20.6221H63.9867L62.7358 18.9271C62.9667 18.8518 75.9179 4.99077 80.9214 1.31836H77.8423Z" fill="#034D23"/>
<path d="M52.6327 29.191H42.3371C42.645 35.4436 41.9523 45.2304 41.5674 49.3422H53.21C52.4402 48.3629 52.5043 35.5001 52.6327 29.191Z" fill="#034D23"/>
<path d="M70.625 29.191H57.5391C57.5391 29.191 72.4532 47.1765 72.838 49.3422H87.9446C84.0958 47.2329 74.7946 35.0292 70.625 29.191Z" fill="#034D23"/>
<path d="M17.1044 25.6429H15.9844L15.792 26.1778H15.334L16.2923 23.5563H16.8004L17.7587 26.1778H17.2969L17.1044 25.6429ZM16.9813 25.2926L16.5464 24.076L16.1076 25.2926H16.9813ZM20.9926 24.8633C20.9926 24.6071 21.0531 24.3774 21.1735 24.174C21.2967 23.9706 21.4622 23.8124 21.67 23.6994C21.8806 23.5839 22.1101 23.5261 22.359 23.5261C22.6438 23.5261 22.8966 23.5952 23.1172 23.7333C23.3404 23.8689 23.5021 24.0623 23.6021 24.3133H23.0748C23.0056 24.1753 22.9093 24.0723 22.7862 24.0045C22.663 23.9367 22.5206 23.9028 22.359 23.9028C22.1819 23.9028 22.0241 23.9418 21.8856 24.0195C21.747 24.0973 21.6381 24.2092 21.5584 24.3548C21.4814 24.5004 21.443 24.6698 21.443 24.8633C21.443 25.0567 21.4814 25.2262 21.5584 25.3717C21.6381 25.5173 21.747 25.6303 21.8856 25.7107C22.0241 25.7885 22.1819 25.8275 22.359 25.8275C22.5206 25.8275 22.663 25.7936 22.7862 25.7258C22.9093 25.658 23.0056 25.555 23.0748 25.4169H23.6021C23.5021 25.668 23.3404 25.8614 23.1172 25.997C22.8966 26.1326 22.6438 26.2004 22.359 26.2004C22.1076 26.2004 21.8779 26.1439 21.67 26.0309C21.4622 25.9155 21.2967 25.7559 21.1735 25.5525C21.0531 25.3491 20.9926 25.1194 20.9926 24.8633ZM26.9331 24.8633C26.9331 24.6071 26.9933 24.3774 27.114 24.174C27.2371 23.9706 27.4026 23.8124 27.6105 23.6994C27.8208 23.5839 28.0506 23.5261 28.2994 23.5261C28.5842 23.5261 28.8369 23.5952 29.0576 23.7333C29.2808 23.8689 29.4425 24.0623 29.5426 24.3133H29.0153C28.946 24.1753 28.8498 24.0723 28.7266 24.0045C28.6034 23.9367 28.461 23.9028 28.2994 23.9028C28.1223 23.9028 27.9645 23.9418 27.826 24.0195C27.6874 24.0973 27.5783 24.2092 27.4988 24.3548C27.4219 24.5004 27.3834 24.6698 27.3834 24.8633C27.3834 25.0567 27.4219 25.2262 27.4988 25.3717C27.5783 25.5173 27.6874 25.6303 27.826 25.7107C27.9645 25.7885 28.1223 25.8275 28.2994 25.8275C28.461 25.8275 28.6034 25.7936 28.7266 25.7258C28.8498 25.658 28.946 25.555 29.0153 25.4169H29.5426C29.4425 25.668 29.2808 25.8614 29.0576 25.997C28.8369 26.1326 28.5842 26.2004 28.2994 26.2004C28.0479 26.2004 27.8183 26.1439 27.6105 26.0309C27.4026 25.9155 27.2371 25.7559 27.114 25.5525C26.9933 25.3491 26.9331 25.1194 26.9331 24.8633ZM34.2398 26.2042C33.9908 26.2042 33.7612 26.1477 33.5509 26.0347C33.343 25.9192 33.1775 25.7597 33.0544 25.5563C32.9337 25.3505 32.8735 25.1194 32.8735 24.8633C32.8735 24.6071 32.9337 24.3774 33.0544 24.174C33.1775 23.9706 33.343 23.8124 33.5509 23.6994C33.7612 23.5839 33.9908 23.5261 34.2398 23.5261C34.4911 23.5261 34.7209 23.5839 34.9288 23.6994C35.1391 23.8124 35.3046 23.9706 35.4252 24.174C35.5457 24.3774 35.6061 24.6071 35.6061 24.8633C35.6061 25.1194 35.5457 25.3505 35.4252 25.5563C35.3046 25.7597 35.1391 25.9192 34.9288 26.0347C34.7209 26.1477 34.4911 26.2042 34.2398 26.2042ZM34.2398 25.8313C34.4169 25.8313 34.5747 25.7923 34.7132 25.7145C34.8518 25.6341 34.9595 25.5211 35.0365 25.3755C35.116 25.2273 35.1558 25.0567 35.1558 24.8633C35.1558 24.6698 35.116 24.5004 35.0365 24.3548C34.9595 24.2092 34.8518 24.0973 34.7132 24.0195C34.5747 23.9418 34.4169 23.9028 34.2398 23.9028C34.0628 23.9028 33.905 23.9418 33.7664 24.0195C33.6279 24.0973 33.5187 24.2092 33.4393 24.3548C33.3623 24.5004 33.3238 24.6698 33.3238 24.8633C33.3238 25.0567 33.3623 25.2273 33.4393 25.3755C33.5187 25.5211 33.6279 25.6341 33.7664 25.7145C33.905 25.7923 34.0628 25.8313 34.2398 25.8313ZM39.4363 23.56V25.2286C39.4363 25.4269 39.489 25.5765 39.5941 25.6768C39.7018 25.7772 39.8508 25.8275 40.0405 25.8275C40.233 25.8275 40.3819 25.7772 40.487 25.6768C40.5948 25.5765 40.6486 25.4269 40.6486 25.2286V23.56H41.0874V25.2211C41.0874 25.4345 41.0401 25.6153 40.945 25.7635C40.8501 25.9117 40.7231 26.022 40.564 26.0949C40.405 26.1678 40.2291 26.2042 40.0367 26.2042C39.8442 26.2042 39.6685 26.1678 39.5094 26.0949C39.3529 26.022 39.2284 25.9117 39.1361 25.7635C39.0437 25.6153 38.9975 25.4345 38.9975 25.2211V23.56H39.4363ZM46.82 26.1778H46.3812L45.0611 24.2229V26.1778H44.6223V23.5563H45.0611L46.3812 25.5073V23.5563H46.82V26.1778ZM52.0878 23.56V23.9103H51.3758V26.1778H50.9371V23.9103H50.2212V23.56H52.0878ZM55.9345 23.56V26.1778H55.4958V23.56H55.9345ZM61.6719 26.1778H61.2332L59.913 24.2229V26.1778H59.4743V23.5563H59.913L61.2332 25.5073V23.5563H61.6719V26.1778ZM67.1476 24.3133C67.0783 24.1828 66.9821 24.0849 66.859 24.0195C66.7358 23.9517 66.5934 23.9178 66.4317 23.9178C66.2547 23.9178 66.0969 23.9568 65.9583 24.0346C65.8198 24.1124 65.7107 24.2229 65.6312 24.3661C65.5542 24.5092 65.5157 24.6749 65.5157 24.8633C65.5157 25.0516 65.5542 25.2186 65.6312 25.3642C65.7107 25.5073 65.8198 25.6179 65.9583 25.6957C66.0969 25.7735 66.2547 25.8124 66.4317 25.8124C66.6704 25.8124 66.864 25.7471 67.0129 25.6166C67.1617 25.4861 67.2527 25.309 67.2862 25.0855H66.2816V24.7427H67.7557V25.078C67.7274 25.2813 67.653 25.4684 67.5325 25.6392C67.4143 25.81 67.2592 25.9467 67.0668 26.0497C66.8769 26.1501 66.6652 26.2004 66.4317 26.2004C66.1802 26.2004 65.9506 26.1439 65.7428 26.0309C65.535 25.9155 65.3695 25.7559 65.2463 25.5525C65.1256 25.3491 65.0654 25.1194 65.0654 24.8633C65.0654 24.6071 65.1256 24.3774 65.2463 24.174C65.3695 23.9706 65.535 23.8124 65.7428 23.6994C65.9531 23.5839 66.1827 23.5261 66.4317 23.5261C66.7165 23.5261 66.9692 23.5952 67.1899 23.7333C67.4132 23.8689 67.5748 24.0623 67.6749 24.3133H67.1476Z" fill="#034D23"/>
</g>
</svg>
