<svg width="457" height="270" viewBox="0 0 457 270" fill="none" xmlns="http://www.w3.org/2000/svg">
<g clip-path="url(#clip0_1402_13)">
<path d="M45.0058 109.146H126.006C83.2058 86.3461 58.5058 61.6461 51.5059 52.1461C45.3392 39.3128 43.7059 12.2462 86.5059 6.64614C129.306 1.04614 151.339 51.3128 157.006 77.1461L193.006 61.1461C188.506 53.6461 182.806 34.4462 146.006 13.6462C109.206 -7.15386 66.0059 2.31281 49.0058 9.64614C38.8392 13.8128 18.6058 29.0462 19.0058 56.6462C19.4058 84.2462 36.5058 103.146 45.0058 109.146Z" fill="white"/>
<path d="M45.0058 109.146H126.006C83.2058 86.3461 58.5058 61.6461 51.5059 52.1461C45.3392 39.3128 43.7059 12.2462 86.5059 6.64614C129.306 1.04614 151.339 51.3128 157.006 77.1461L193.006 61.1461C188.506 53.6461 182.806 34.4462 146.006 13.6462C109.206 -7.15386 66.0059 2.31281 49.0058 9.64614C38.8392 13.8128 18.6058 29.0462 19.0058 56.6462C19.4058 84.2462 36.5058 103.146 45.0058 109.146Z" fill="white"/>
<path d="M45.0058 109.146H126.006C83.2058 86.3461 58.5058 61.6461 51.5059 52.1461C45.3392 39.3128 43.7059 12.2462 86.5059 6.64614C129.306 1.04614 151.339 51.3128 157.006 77.1461L193.006 61.1461C188.506 53.6461 182.806 34.4462 146.006 13.6462C109.206 -7.15386 66.0059 2.31281 49.0058 9.64614C38.8392 13.8128 18.6058 29.0462 19.0058 56.6462C19.4058 84.2462 36.5058 103.146 45.0058 109.146Z" stroke="white"/>
<path d="M178.5 154H104C118.4 157.2 142.667 180.667 153 192C187.4 246 146.667 260.833 122 261.5C66.8 259.9 42.6667 198.167 37.5 167.5L0 188C14 215.2 33 235 42 242.5C54 252.5 139 296.5 178.5 246.5C210.1 206.5 191.667 168.167 178.5 154Z" fill="white"/>
<path d="M216 7C218.8 9.8 219.833 76.5 220 109.5H273.5C271.1 71.9 274.5 25.5 276.5 7H216Z" fill="white"/>
<path d="M404.5 7C403.7 14.2 340.833 78.3333 309.5 109.5H332.5L326 100.5C327.2 100.1 394.5 26.5 420.5 7H404.5Z" fill="white"/>
<path d="M273.5 155H220C221.6 188.2 218 240.167 216 262H276.5C272.5 256.8 272.833 188.5 273.5 155Z" fill="white"/>
<path d="M367 155H299C299 155 376.5 250.5 378.5 262H457C437 250.8 388.667 186 367 155Z" fill="white"/>
<path d="M88.8802 136.16H83.0602L82.0602 139H79.6802L84.6602 125.08H87.3002L92.2802 139H89.8802L88.8802 136.16ZM88.2402 134.3L85.9802 127.84L83.7002 134.3H88.2402ZM109.085 132.02C109.085 130.66 109.399 129.44 110.025 128.36C110.665 127.28 111.525 126.44 112.605 125.84C113.699 125.227 114.892 124.92 116.185 124.92C117.665 124.92 118.979 125.287 120.125 126.02C121.285 126.74 122.125 127.767 122.645 129.1H119.905C119.545 128.367 119.045 127.82 118.405 127.46C117.765 127.1 117.025 126.92 116.185 126.92C115.265 126.92 114.445 127.127 113.725 127.54C113.005 127.953 112.439 128.547 112.025 129.32C111.625 130.093 111.425 130.993 111.425 132.02C111.425 133.047 111.625 133.947 112.025 134.72C112.439 135.493 113.005 136.093 113.725 136.52C114.445 136.933 115.265 137.14 116.185 137.14C117.025 137.14 117.765 136.96 118.405 136.6C119.045 136.24 119.545 135.693 119.905 134.96H122.645C122.125 136.293 121.285 137.32 120.125 138.04C118.979 138.76 117.665 139.12 116.185 139.12C114.879 139.12 113.685 138.82 112.605 138.22C111.525 137.607 110.665 136.76 110.025 135.68C109.399 134.6 109.085 133.38 109.085 132.02ZM139.954 132.02C139.954 130.66 140.267 129.44 140.894 128.36C141.534 127.28 142.394 126.44 143.474 125.84C144.567 125.227 145.761 124.92 147.054 124.92C148.534 124.92 149.847 125.287 150.994 126.02C152.154 126.74 152.994 127.767 153.514 129.1H150.774C150.414 128.367 149.914 127.82 149.274 127.46C148.634 127.1 147.894 126.92 147.054 126.92C146.134 126.92 145.314 127.127 144.594 127.54C143.874 127.953 143.307 128.547 142.894 129.32C142.494 130.093 142.294 130.993 142.294 132.02C142.294 133.047 142.494 133.947 142.894 134.72C143.307 135.493 143.874 136.093 144.594 136.52C145.314 136.933 146.134 137.14 147.054 137.14C147.894 137.14 148.634 136.96 149.274 136.6C149.914 136.24 150.414 135.693 150.774 134.96H153.514C152.994 136.293 152.154 137.32 150.994 138.04C149.847 138.76 148.534 139.12 147.054 139.12C145.747 139.12 144.554 138.82 143.474 138.22C142.394 137.607 141.534 136.76 140.894 135.68C140.267 134.6 139.954 133.38 139.954 132.02ZM177.923 139.14C176.629 139.14 175.436 138.84 174.343 138.24C173.263 137.627 172.403 136.78 171.763 135.7C171.136 134.607 170.823 133.38 170.823 132.02C170.823 130.66 171.136 129.44 171.763 128.36C172.403 127.28 173.263 126.44 174.343 125.84C175.436 125.227 176.629 124.92 177.923 124.92C179.229 124.92 180.423 125.227 181.503 125.84C182.596 126.44 183.456 127.28 184.083 128.36C184.709 129.44 185.023 130.66 185.023 132.02C185.023 133.38 184.709 134.607 184.083 135.7C183.456 136.78 182.596 137.627 181.503 138.24C180.423 138.84 179.229 139.14 177.923 139.14ZM177.923 137.16C178.843 137.16 179.663 136.953 180.383 136.54C181.103 136.113 181.663 135.513 182.063 134.74C182.476 133.953 182.683 133.047 182.683 132.02C182.683 130.993 182.476 130.093 182.063 129.32C181.663 128.547 181.103 127.953 180.383 127.54C179.663 127.127 178.843 126.92 177.923 126.92C177.003 126.92 176.183 127.127 175.463 127.54C174.743 127.953 174.176 128.547 173.763 129.32C173.363 130.093 173.163 130.993 173.163 132.02C173.163 133.047 173.363 133.953 173.763 134.74C174.176 135.513 174.743 136.113 175.463 136.54C176.183 136.953 177.003 137.16 177.923 137.16ZM204.926 125.1V133.96C204.926 135.013 205.2 135.807 205.746 136.34C206.306 136.873 207.08 137.14 208.066 137.14C209.066 137.14 209.84 136.873 210.386 136.34C210.946 135.807 211.226 135.013 211.226 133.96V125.1H213.506V133.92C213.506 135.053 213.26 136.013 212.766 136.8C212.273 137.587 211.613 138.173 210.786 138.56C209.96 138.947 209.046 139.14 208.046 139.14C207.046 139.14 206.133 138.947 205.306 138.56C204.493 138.173 203.846 137.587 203.366 136.8C202.886 136.013 202.646 135.053 202.646 133.92V125.1H204.926ZM243.295 139H241.015L234.155 128.62V139H231.875V125.08H234.155L241.015 135.44V125.08H243.295V139ZM270.669 125.1V126.96H266.969V139H264.689V126.96H260.969V125.1H270.669ZM290.658 125.1V139H288.378V125.1H290.658ZM320.472 139H318.192L311.332 128.62V139H309.052V125.08H311.332L318.192 135.44V125.08H320.472V139ZM348.926 129.1C348.566 128.407 348.066 127.887 347.426 127.54C346.786 127.18 346.046 127 345.206 127C344.286 127 343.466 127.207 342.746 127.62C342.026 128.033 341.459 128.62 341.046 129.38C340.646 130.14 340.446 131.02 340.446 132.02C340.446 133.02 340.646 133.907 341.046 134.68C341.459 135.44 342.026 136.027 342.746 136.44C343.466 136.853 344.286 137.06 345.206 137.06C346.446 137.06 347.452 136.713 348.226 136.02C348.999 135.327 349.472 134.387 349.646 133.2H344.426V131.38H352.086V133.16C351.939 134.24 351.552 135.233 350.926 136.14C350.312 137.047 349.506 137.773 348.506 138.32C347.519 138.853 346.419 139.12 345.206 139.12C343.899 139.12 342.706 138.82 341.626 138.22C340.546 137.607 339.686 136.76 339.046 135.68C338.419 134.6 338.106 133.38 338.106 132.02C338.106 130.66 338.419 129.44 339.046 128.36C339.686 127.28 340.546 126.44 341.626 125.84C342.719 125.227 343.912 124.92 345.206 124.92C346.686 124.92 347.999 125.287 349.146 126.02C350.306 126.74 351.146 127.767 351.666 129.1H348.926Z" fill="white"/>
</g>
<defs>
<clipPath id="clip0_1402_13">
<rect width="457" height="270" fill="white"/>
</clipPath>
</defs>
</svg>
